<?xml version="1.0" encoding="utf-8"?>
<!-- Feito por Pablo S Costa  -->
<!DOCTYPE svg PUBLIC "-//W3C//DTD SVG 1.1//EN" "http://www.w3.org/Graphics/SVG/1.1/DTD/svg11.dtd">
<svg version="1.1" id="Logo" xmlns="http://www.w3.org/2000/svg" xmlns:xlink="http://www.w3.org/1999/xlink" x="0px" y="0px"
	 width="425px" height="364px" viewBox="0 0 425 364" enable-background="new 0 0 425 364" xml:space="preserve">
<g id="moeda_branca">
	<linearGradient id="SVGID_5_" gradientUnits="userSpaceOnUse" x1="92.3281" y1="279.4863" x2="218.0856" y2="41.1399">
		<stop  offset="0" style="stop-color:#797979"/>
		<stop  offset="0.9" style="stop-color:#E2E2E2"/>
	</linearGradient>
	<path fill="url(#SVGID_5_)" d="M204.643,37.697c-16.86-9.48-35.937-14.829-56.143-14.829c-68.544,0-124.11,61.491-124.11,137.345
		c0,58.105,32.606,107.782,78.675,127.849c16.859,9.48,35.936,14.828,56.143,14.828c68.544,0,124.11-61.491,124.11-137.345
		C283.317,107.439,250.711,57.763,204.643,37.697z"/>
	<linearGradient id="SVGID_6_" gradientUnits="userSpaceOnUse" x1="92.0088" y1="332.1611" x2="220.0803" y2="14.6142">
		<stop  offset="0" style="stop-color:#C0C0C0"/>
		<stop  offset="0.3448" style="stop-color:#BABABA"/>
		<stop  offset="0.6749" style="stop-color:#E2E2E2"/>
		<stop  offset="1" style="stop-color:#D5D5D5"/>
	</linearGradient>
	<ellipse fill="url(#SVGID_6_)" cx="159.207" cy="165.545" rx="124.11" ry="137.345"/>
	<linearGradient id="SVGID_7_" gradientUnits="userSpaceOnUse" x1="264.3594" y1="173.5313" x2="73.9136" y2="159.067">
		<stop  offset="0" style="stop-color:#959595"/>
		<stop  offset="0.1817" style="stop-color:#9B9B9B"/>
		<stop  offset="0.4228" style="stop-color:#ACACAC"/>
		<stop  offset="0.5715" style="stop-color:#BABABA"/>
		<stop  offset="0.6857" style="stop-color:#B6B6B6"/>
		<stop  offset="0.7876" style="stop-color:#ACACAC"/>
		<stop  offset="0.8848" style="stop-color:#999999"/>
		<stop  offset="0.9786" style="stop-color:#808080"/>
		<stop  offset="1" style="stop-color:#797979"/>
	</linearGradient>
	<path fill="url(#SVGID_7_)" d="M238.76,60.131c-21.541-19.93-49.279-31.931-79.553-31.931c-68.543,0-124.11,61.491-124.11,137.344
		c0,40.087,15.522,76.158,40.274,101.266c22.084,22.403,51.516,36.079,83.835,36.079c68.544,0,124.11-61.491,124.11-137.345
		C283.317,123.194,265.991,85.326,238.76,60.131z M159.207,44.197c26.594,0,50.975,10.479,69.96,27.907
		c9.44,9.617,17.342,21.048,23.275,33.788l-0.018,0.015c-28.266,0.243-28.047-3.152-62.229-16.003
		c-34.181-12.852-55.302-10.184-85.977,5.092c-18.385,9.155-32.853,12.037-41.503,12.878
		C81.259,69.957,117.512,44.197,159.207,44.197z M154.924,282.745c-26.594,0-50.975-10.479-69.96-27.906
		c-21.768-22.176-35.779-53.97-35.779-89.294c0-11.543,1.815-22.707,3.815-33.284v7.835l4.651,4.147
		c19.376,0.731,32.284,5.874,38.729,10.618c3.574,4.751,3.779,10.242,0.887,18.455c-3.287,9.334-19.884,6.911-27.882,2.667
		c20.049,24.005,39.891,71.774,39.891,71.774l4.724,4.146c0,0,0-75.896,0-85.595c2,1.163,4.811,3.036,7.532,5.439
		c6.206,6.514,12.421,15.265,18.684,24.361c8.933,12.976,27.046,31.366,34.482,38.397c3.485,3.438,6.062,5.897,7.063,6.729
		c3.506,2.909,17.314,11.639,34.186,12.366c4.17,0.181,7.591,0.078,10.512-0.243C207.258,271.667,182.257,282.745,154.924,282.745z
		 M134.244,147h-0.007l0.025,0.192c1.048,2.276,2.388,4.435,3.965,6.267l1.458,2.313c-21.634-2.715-33.679-10.929-43.279-17.321
		c4.217-1.809,18.445-7.774,37.709-14.516c-1.55,3.482-2.422,7.251-2.422,11.396C131.692,139.585,132.616,144,134.244,147z
		 M233.972,232.205c3.441-3.067,5.645-7.765,5.645-13.034c0-6.156-3.011-11.527-7.485-14.432c-0.076-0.108-0.151-0.216-0.229-0.321
		c1.821-0.17,3.515,0.237,5.035,1.085C241.714,212.725,242.097,225.549,233.972,232.205z M248.499,199.143l0.004-0.003l-0.1-0.097
		c-0.131-0.133-0.183-0.258-0.313-0.382l-4.09-4.048v0.007c-1-0.798-1.726-1.421-2.455-1.905c-3.287-2.182-10.99-8.023-23.483-1.212
		c-9.934,5.415-12.291,12.852-12.947,23.521c-0.214,3.47,0.686,6.695,2.344,9.372l-0.013-0.008l0.015,0.02
		c0.812,1.309,1.804,2.482,2.933,3.49l0.025,0.031l3.558,3.457c0.051,0.052,0.104,0.101,0.155,0.151l0.277,0.269l0.02,0.013
		c1.6,1.49,3.486,2.639,5.54,3.331l0.005,0.003l-0.002-0.003c1.443,0.487,2.967,0.752,4.526,0.752c1.462,0,2.873-0.233,4.21-0.662
		c-16.02,7.08-28.639,0.864-37.853-4.697c-5.64-3.404-13.301-9.131-19.568-14.852c-2.508-2.599-4.536-5.075-5.729-7.188
		c-4.382-7.761-27.608-33.22-30.896-39.283c11.395,4.284,25.771,4.104,33.805,3.604c12.439-0.774,33.608-1.421,57.785-16.455
		c14.196-8.828,22.511-7.633,27.049-4.95c0.303,0.491,0.439,0.803,0.439,0.803l4.283,4.147c0,0,0.438-17.943,0-22.793l-4.283-4.147
		c-2.849,0.485-30.875-4.092-53.464-14.307c-28.777-13.012-51.13-17.106-79.989-4.183c-36.64,16.408-59.08,16.177-64.98,15.74
		c0.572-1.874,1.186-3.727,1.836-5.559l0.877,0.816c13.385-0.728,36.02,0,57.932-13.336c34.878-21.228,67.573-5.577,96.714,4.122
		c29.143,9.699,44.042,6.79,44.042,6.79s0.137-1.12,0.223-2.723c4.936,13.809,7.648,28.858,7.648,44.609
		c0,18.504-3.75,36.035-10.444,51.727C253.486,205.896,250.977,201.684,248.499,199.143z M176.177,120.913
		c2.054,0.533,4.004,1.125,5.813,1.75c8.743,3.024,30.652,10.068,43.085,15.285c-8.397,5.355-22.635,13.502-46.267,17.041
		c2.828-4.313,4.497-9.615,4.497-15.352C183.304,132.298,180.572,125.667,176.177,120.913z"/>
	<linearGradient id="SVGID_8_" gradientUnits="userSpaceOnUse" x1="44.6318" y1="160.8687" x2="280.7716" y2="170.507">
		<stop  offset="0" style="stop-color:#BABABA"/>
		<stop  offset="1" style="stop-color:#DEDEDE"/>
	</linearGradient>
	<path fill="url(#SVGID_8_)" d="M159.207,28.201c-68.543,0-124.11,61.491-124.11,137.344c0,75.854,55.566,137.345,124.11,137.345
		c68.544,0,124.11-61.491,124.11-137.345C283.317,89.692,227.751,28.201,159.207,28.201z M159.207,286.893
		c-60.56,0-109.164-54.328-109.164-121.348c0-16.598,1.957-32.416,8.957-46.825v3.216c13-0.728,35.53,0,57.441-13.336
		c34.877-21.228,67.327-5.577,96.469,4.122c29.142,9.699,43.919,6.79,43.919,6.79s0.596-5.334-0.061-9.457
		c-28.266,0.243-28.078-3.152-62.26-16.004c-34.181-12.851-55.317-10.184-85.993,5.092c-24.149,12.025-41.559,13.231-47.876,13.2
		c17.816-40.35,55.256-68.146,98.571-68.146c60.56,0,109.652,54.33,109.652,121.348c0,22.394-5.488,43.364-15.046,61.371
		c0.408-3.575,0.538-7.3,0.473-10.897c-0.219-12.125-5.255-16.975-8.542-19.156c-3.287-2.182-10.95-8.023-23.443-1.213
		c-9.934,5.416-12.27,12.853-12.927,23.521c-0.568,9.219,6.77,16.73,15.119,16.73c8.351,0,15.12-7.49,15.12-16.73
		c0-6.37-3.218-11.907-7.952-14.732c12.864-1.544,19.622,25.689,3.569,33.888c-17.091,8.729-30.457,2.183-40.098-3.637
		s-25.198-18.429-29.58-26.188c-4.382-7.761-27.608-33.22-30.896-39.283c11.395,4.284,25.771,4.104,33.805,3.604
		c12.439-0.774,33.608-1.421,57.785-16.455c25.009-15.552,31.771,0,31.771,0s0.438-17.943,0-22.793
		c-2.849,0.485-30.876-4.092-53.464-14.306c-28.777-13.013-50.641-17.106-79.499-4.183C81.967,134.384,59,130.665,59,130.665v13.579
		c22,0.849,35.53,7.638,40.679,12.852c5.149,5.213,5.495,11.033,2.208,20.368c-3.286,9.335-19.634,6.911-27.631,2.668
		C94.303,204.137,114,251.904,114,251.904s0-75.896,0-85.595c9,4.365,20.19,18.672,30.709,33.947
		c10.517,15.276,33.704,38.069,37.209,40.979c3.506,2.909,17.237,11.639,34.108,12.366c11.06,0.478,16.895-1.025,21.737-3.347
		C217.848,272.854,189.985,286.893,159.207,286.893z M144.846,160.07c-26.613-3.117-38.909-14.542-49.735-21.039
		c0,0,19.088-8.408,45.904-17.458c0.689-0.232,1.376-0.431,2.063-0.633c-4.38,4.753-7.102,11.372-7.102,18.698
		C135.976,147.903,139.439,155.271,144.846,160.07z M176.177,120.913c2.054,0.533,4.004,1.125,5.813,1.75
		c10.517,3.638,40.098,13.094,49.301,18.187c-8.965,5.823-25.916,16.53-56.995,19.34c5.485-4.796,9.008-12.216,9.008-20.552
		C183.304,132.298,180.572,125.667,176.177,120.913z"/>
</g>
<g id="Capivara_branca">
	<linearGradient id="corpointeiro_3_" gradientUnits="userSpaceOnUse" x1="322.0742" y1="298.1748" x2="199.4922" y2="89.0153">
		<stop  offset="0" style="stop-color:#B4B4B4"/>
		<stop  offset="0.7211" style="stop-color:#9B9B9B"/>
		<stop  offset="1" style="stop-color:#909090"/>
	</linearGradient>
	<path id="corpointeiro_1_" fill="url(#corpointeiro_3_)" d="M398.726,97.695c-3.979-14.755-18.623-18.262-31.627-22.24
		c-17.64-5.396-38.07-13.952-56.704-8.786c-0.051,0.013-5.545-5.176-8.025-5.026c-3.458,0.209-6.599,2.571-8.494,5.355
		c-2.336,3.433-0.177,9.083-2.511,10.998c-4.189,3.436-7.979,7.337-11.45,11.491c-8.045,9.63-14.368,20.169-24.252,28.177
		c-16.151,13.085-36.348,18.811-53.603,30.053c-16.292,10.615-30.793,24.04-43.503,38.71c-8.237,9.508-15.128,19.416-20.874,30.59
		c-8.863,17.236-9.831,38.329-10.41,57.338c-0.529,17.388,1.693,33.403,14.58,46.1c12.454,12.271,29.994,19.933,47.455,20.728
		c17.75,0.81,34.729-5.709,48.466-16.77c6.123-4.93,17.083,6.514,24.225-3.271c4.48-6.138-3.192-11.109-7.785-13.423
		c4.189-5.232,6.384-6.378,11.736-9.61c3.317-2.014,6.392-4.41,9.291-6.985c4.522-4.036,8.643-8.532,12.393-13.291
		c1.855-2.358,3.659-4.775,5.238-7.331c5.932-3.163,10.498-7.977,13.429-14.021c-0.74,5.178,0.058,5.381,2.764,8.689
		c0.324,0.396,0.449,0.966,0.565,1.449c1.467,6.203,1.71,12.582,4.792,18.283c1.048,1.942,2.37,3.759,3.967,5.288
		c1.894,3.789,20.047,11.798,16.548,4.801c2.954,1.669,9.39,4.367,12.729,1.943c0.345-0.25-5.124-7.35-5.438-7.669
		c0.101-0.002,0.086-0.089-0.043-0.26c0.55-0.457,2.948-0.021,3.043-0.985c0.181-1.828-9.181-5.351-10.671-6.291
		c-5.818-3.669-6.811-7.855-7.364-14.174c-1.298-14.792-2.868-30.688-0.55-45.439c3.021-19.226,6.481-37.98,12.654-56.5
		c2.235,1.74,4.852,2.954,7.292,4.363c-2.133-1.523-3.232-5.189-4.149-7.476c2.259,1.262,4.601,2.37,6.914,3.526
		c-2.997-2.398-4.397-7.14-5.584-10.609c2.263,1.278,4.605,2.414,6.967,3.499c-9.781-7.685-2.275-19.935,8.01-20.921
		c3.743-0.359,30.17-1.491,31.013-6.121c0.355-1.951-1.659-1.009,1.447-2.333c2.854-1.216,5.174-4.241,6.004-7.18
		C399.39,114.635,400.845,105.565,398.726,97.695C398.625,97.321,401.49,107.964,398.726,97.695z"/>
	
		<radialGradient id="pataTraseira_3_" cx="246.9912" cy="328.6592" r="14.0724" gradientTransform="matrix(0.9004 0 0 0.6722 29.2021 96.154)" gradientUnits="userSpaceOnUse">
		<stop  offset="0.3103" style="stop-color:#BCBCBC"/>
		<stop  offset="0.5795" style="stop-color:#C2C2C2"/>
		<stop  offset="0.9632" style="stop-color:#D5D5D5"/>
		<stop  offset="1" style="stop-color:#D7D7D7"/>
	</radialGradient>
	<path id="pataTraseira_1_" fill="url(#pataTraseira_3_)" d="M240.028,322.337c4.919,2.399,11.077,4.414,16.51,2.616
		c4.81-1.592,8.416-6.221,5.651-11.104c-1.937-3.423-6.892-7.376-9.489-4.053C249,314.532,244.231,318.102,240.028,322.337
		C244.352,324.446,243.567,318.771,240.028,322.337z"/>
	
		<radialGradient id="iluminacaoInderior_3_" cx="243.5161" cy="207.6914" r="141.6975" gradientTransform="matrix(0.6971 0.7169 -3.2475 3.1579 748.2373 -622.7529)" gradientUnits="userSpaceOnUse">
		<stop  offset="0" style="stop-color:#909090"/>
		<stop  offset="0.6256" style="stop-color:#B4B4B4"/>
		<stop  offset="0.6946" style="stop-color:#B6B6B6"/>
		<stop  offset="0.7643" style="stop-color:#B9B9B9"/>
		<stop  offset="1" style="stop-color:#BCBCBC"/>
	</radialGradient>
	<path id="iluminacaoInderior_1_" fill="url(#iluminacaoInderior_3_)" d="M398.726,97.695c-2.131-7.917-13.659-9.741-20.984-10.748
		c-4.685-0.644-9.332,0.076-14.021,0.012c-4.024-0.055-7.926-1.368-11.896-1.884c-4.18-0.543-8.399-0.669-12.573-1.268
		c-2.226-0.318-4.433-0.746-6.616-1.283c-3.764-0.926-7.021-3.869-8.947-0.181c-0.345,0.66-2.393,2.733-2.43,3.59
		c-0.112,2.547,3.575,1.066,2.487,4.009c-1.202,3.25-6.896,8.112-10.121,4.141c2.543,14.101,2.076,28.039-7.243,39.509
		c-9.786,12.044-17.199,26.102-23.25,40.337c-2.235,5.258-3.772,10.992-7.256,15.604c-4.351,5.758-10.742,9.524-16.923,13.013
		c-6.596,3.723-12.37,7.094-17.184,13.091c-4.736,5.901-8.471,12.773-14.265,17.761c8.394,1.085,18.179,1.004,25.289,6.064
		c5.109,3.636,8.739,8.558,11.404,14.144c6.865,14.393,2.853,35.032-5.292,47.9c10.943-3.839,19.925-12.959,27.146-21.711
		c2.44-2.957,4.802-6.027,6.819-9.294c5.932-3.163,10.498-7.977,13.429-14.021c-0.258,1.806-0.941,4.943,0.271,6.64
		c0.826,1.157,2.37,1.323,2.867,2.809c2.125,6.345,1.699,12.941,5.021,19.047c3.033,5.576,9.266,10.656,15.367,12.583
		c2.961,0.936,7.255,1.723,5.11-2.567c2.954,1.669,9.39,4.367,12.729,1.943c0.178-0.129-5.287-8.089-5.48-7.929
		c0.66-0.549,1.96-0.226,2.737-0.629c1.563-0.813-5.681-4.043-5.903-4.156c-5.259-2.669-10.62-5.763-11.371-12.099
		c-1.323-11.16-1.812-22.521-1.856-33.751c-0.1-24.534,5.614-49.68,13.506-72.755c2.235,1.74,4.852,2.954,7.292,4.363
		c-2.133-1.523-3.232-5.189-4.149-7.476c2.259,1.262,4.601,2.37,6.914,3.526c-2.997-2.398-4.397-7.14-5.584-10.609
		c2.263,1.278,4.605,2.414,6.967,3.499c-9.709-7.627-2.224-19.94,8.01-20.921c3.743-0.359,30.17-1.491,31.013-6.121
		c0.355-1.951-1.659-1.009,1.447-2.333c2.854-1.216,5.174-4.241,6.004-7.18C399.39,114.635,400.845,105.565,398.726,97.695
		C398.287,96.066,401.49,107.964,398.726,97.695z"/>
	<linearGradient id="dedo2_3_" gradientUnits="userSpaceOnUse" x1="332.877" y1="297.2207" x2="330.7475" y2="280.1849">
		<stop  offset="0" style="stop-color:#D7D7D7"/>
		<stop  offset="0.0368" style="stop-color:#D5D5D5"/>
		<stop  offset="0.4205" style="stop-color:#C2C2C2"/>
		<stop  offset="0.6897" style="stop-color:#BCBCBC"/>
		<stop  offset="0.9561" style="stop-color:#BCBCBC;stop-opacity:0.1413"/>
		<stop  offset="1" style="stop-color:#BCBCBC;stop-opacity:0"/>
	</linearGradient>
	<path id="dedo2_1_" fill="url(#dedo2_3_)" d="M347.327,296.265c-2.328-1.817-3.505-5.495-5.776-7.669
		c-2.83-2.707-6.188-4.822-9.826-6.269c-1.439-0.571-15.502-5.874-15.555-1.387c-0.027,2.277,3.846,1.956,5.614,2.615
		c3.743,1.396,6.887,3.642,9.603,6.556c2.742,2.942,3.994,5.798,8.107,7C340.719,297.47,348.641,297.289,347.327,296.265
		C346.951,295.972,347.67,296.532,347.327,296.265z"/>
	<linearGradient id="dedo1_3_" gradientUnits="userSpaceOnUse" x1="324.7222" y1="297.2539" x2="324.5732" y2="283.1745">
		<stop  offset="0" style="stop-color:#D7D7D7"/>
		<stop  offset="0.5916" style="stop-color:#C3C3C3"/>
		<stop  offset="0.7685" style="stop-color:#BCBCBC"/>
		<stop  offset="1" style="stop-color:#BCBCBC;stop-opacity:0"/>
	</linearGradient>
	<path id="dedo1_1_" fill="url(#dedo1_3_)" d="M335.854,297.088c-1.704-6.302-13.311-17.339-22.493-14.383
		c2.775,6.472,8.726,11.718,15.21,14.395C329.364,297.427,336.457,299.319,335.854,297.088
		C335.715,296.577,336.082,297.936,335.854,297.088z"/>
	<linearGradient id="orelhaDireita_3_" gradientUnits="userSpaceOnUse" x1="313.9385" y1="93.4175" x2="319.2027" y2="70.4598">
		<stop  offset="0.0056" style="stop-color:#B4B4B4"/>
		<stop  offset="1" style="stop-color:#909090"/>
	</linearGradient>
	<path id="orelhaDireita_1_" fill="url(#orelhaDireita_3_)" d="M321.877,84.858c6.013-3.928,3.331-13.324-2.33-15.663
		c-7.801-3.222-12.045,7.629-11.513,13.722c0.369,4.232,4.708,13.006,9.554,12.173c3.185-0.548,4.998-2.013,6.158-5.148
		C324.523,87.834,319.434,86.453,321.877,84.858C322.418,84.504,320.667,85.648,321.877,84.858z"/>
	<linearGradient id="orelhaEsquerda_3_" gradientUnits="userSpaceOnUse" x1="301.2407" y1="71.519" x2="296.1771" y2="62.879">
		<stop  offset="0" style="stop-color:#B4B4B4"/>
		<stop  offset="0.7211" style="stop-color:#9B9B9B"/>
		<stop  offset="1" style="stop-color:#909090"/>
	</linearGradient>
	<path id="orelhaEsquerda_1_" fill="url(#orelhaEsquerda_3_)" d="M292.75,76.887c5.251-4.094,12.068-8.067,17.401-10.021
		C301.214,55.488,290.994,65.956,292.75,76.887z"/>
	
		<radialGradient id="olho_3_" cx="349.7476" cy="87.6738" r="3.2646" gradientTransform="matrix(0.9995 -0.0313 0.0132 0.4211 -0.9848 61.6993)" gradientUnits="userSpaceOnUse">
		<stop  offset="0" style="stop-color:#434343"/>
		<stop  offset="1" style="stop-color:#282828"/>
	</radialGradient>
	<path id="olho_1_" fill="url(#olho_3_)" d="M341.354,88.315c0,0,6.369-6.122,20.292,0.396
		C350.637,96.018,346.982,94.092,341.354,88.315z"/>
</g>
</svg>
