<?xml version="1.0" encoding="utf-8"?>
<!-- Feito por Pablo S Costa  -->
<!DOCTYPE svg PUBLIC "-//W3C//DTD SVG 1.1//EN" "http://www.w3.org/Graphics/SVG/1.1/DTD/svg11.dtd">
<svg version="1.1" id="Logo" xmlns="http://www.w3.org/2000/svg" xmlns:xlink="http://www.w3.org/1999/xlink" x="0px" y="0px"
	 width="960px" height="364px" viewBox="0 0 960 364" enable-background="new 0 0 960 364" xml:space="preserve">
<g id="moeda_branca">
	<linearGradient id="SVGID_5_" gradientUnits="userSpaceOnUse" x1="76.3281" y1="275.4863" x2="202.0856" y2="37.1399">
		<stop  offset="0" style="stop-color:#797979"/>
		<stop  offset="0.9" style="stop-color:#E2E2E2"/>
	</linearGradient>
	<path fill="url(#SVGID_5_)" d="M188.643,33.697c-16.86-9.48-35.937-14.829-56.143-14.829c-68.544,0-124.11,61.491-124.11,137.345
		c0,58.105,32.606,107.782,78.675,127.849c16.859,9.48,35.936,14.828,56.143,14.828c68.544,0,124.11-61.491,124.11-137.345
		C267.317,103.439,234.711,53.763,188.643,33.697z"/>
	<linearGradient id="SVGID_6_" gradientUnits="userSpaceOnUse" x1="76.0083" y1="328.1611" x2="204.08" y2="10.6136">
		<stop  offset="0" style="stop-color:#C0C0C0"/>
		<stop  offset="0.3448" style="stop-color:#BABABA"/>
		<stop  offset="0.6749" style="stop-color:#E2E2E2"/>
		<stop  offset="1" style="stop-color:#D5D5D5"/>
	</linearGradient>
	<ellipse fill="url(#SVGID_6_)" cx="143.207" cy="161.545" rx="124.11" ry="137.345"/>
	<linearGradient id="SVGID_7_" gradientUnits="userSpaceOnUse" x1="248.3594" y1="169.5313" x2="57.9136" y2="155.067">
		<stop  offset="0" style="stop-color:#959595"/>
		<stop  offset="0.1817" style="stop-color:#9B9B9B"/>
		<stop  offset="0.4228" style="stop-color:#ACACAC"/>
		<stop  offset="0.5715" style="stop-color:#BABABA"/>
		<stop  offset="0.6857" style="stop-color:#B6B6B6"/>
		<stop  offset="0.7876" style="stop-color:#ACACAC"/>
		<stop  offset="0.8848" style="stop-color:#999999"/>
		<stop  offset="0.9786" style="stop-color:#808080"/>
		<stop  offset="1" style="stop-color:#797979"/>
	</linearGradient>
	<path fill="url(#SVGID_7_)" d="M222.76,56.131c-21.541-19.93-49.279-31.931-79.553-31.931c-68.543,0-124.11,61.491-124.11,137.344
		c0,40.087,15.522,76.158,40.274,101.266c22.084,22.403,51.516,36.079,83.835,36.079c68.544,0,124.11-61.491,124.11-137.345
		C267.317,119.194,249.991,81.326,222.76,56.131z M143.207,40.197c26.594,0,50.975,10.479,69.96,27.907
		c9.44,9.617,17.342,21.048,23.275,33.788l-0.018,0.015c-28.266,0.243-28.047-3.152-62.229-16.003
		c-34.181-12.852-55.302-10.184-85.977,5.092c-18.385,9.155-32.853,12.037-41.503,12.878
		C65.259,65.957,101.512,40.197,143.207,40.197z M138.924,278.745c-26.594,0-50.975-10.479-69.96-27.906
		c-21.768-22.176-35.779-53.97-35.779-89.294c0-11.543,1.815-22.707,3.815-33.284v7.835l4.651,4.147
		c19.376,0.731,32.284,5.874,38.729,10.618c3.574,4.751,3.779,10.242,0.887,18.455c-3.287,9.334-19.884,6.911-27.882,2.667
		c20.049,24.005,39.891,71.774,39.891,71.774L98,247.904c0,0,0-75.896,0-85.595c2,1.163,4.811,3.036,7.532,5.439
		c6.206,6.514,12.421,15.265,18.684,24.361c8.933,12.976,27.046,31.366,34.482,38.397c3.485,3.438,6.062,5.897,7.063,6.729
		c3.506,2.909,17.314,11.639,34.186,12.366c4.17,0.181,7.591,0.078,10.512-0.243C191.258,267.667,166.257,278.745,138.924,278.745z
		 M118.244,143h-0.007l0.025,0.192c1.048,2.276,2.388,4.435,3.965,6.267l1.458,2.313c-21.634-2.715-33.679-10.929-43.279-17.321
		c4.217-1.809,18.445-7.774,37.709-14.516c-1.55,3.482-2.422,7.251-2.422,11.396C115.692,135.585,116.616,140,118.244,143z
		 M217.972,228.205c3.441-3.067,5.645-7.765,5.645-13.034c0-6.156-3.011-11.527-7.485-14.432c-0.076-0.108-0.151-0.216-0.229-0.321
		c1.821-0.17,3.515,0.237,5.035,1.085C225.714,208.725,226.097,221.549,217.972,228.205z M232.499,195.143l0.004-0.003l-0.1-0.097
		c-0.131-0.133-0.183-0.258-0.313-0.382l-4.09-4.048v0.007c-1-0.798-1.726-1.421-2.455-1.905c-3.287-2.182-10.99-8.023-23.483-1.212
		c-9.934,5.415-12.291,12.852-12.947,23.521c-0.214,3.47,0.686,6.695,2.344,9.372l-0.013-0.008l0.015,0.02
		c0.812,1.309,1.804,2.482,2.933,3.49l0.025,0.031l3.558,3.457c0.051,0.052,0.104,0.101,0.155,0.151l0.277,0.269l0.02,0.013
		c1.6,1.49,3.486,2.639,5.54,3.331l0.005,0.003l-0.002-0.003c1.443,0.487,2.967,0.752,4.526,0.752c1.462,0,2.873-0.233,4.21-0.662
		c-16.02,7.08-28.639,0.864-37.853-4.697c-5.64-3.404-13.301-9.131-19.568-14.852c-2.508-2.599-4.536-5.075-5.729-7.188
		c-4.382-7.761-27.608-33.22-30.896-39.283c11.395,4.284,25.771,4.104,33.805,3.604c12.439-0.774,33.608-1.421,57.785-16.455
		c14.196-8.828,22.511-7.633,27.049-4.95c0.303,0.491,0.439,0.803,0.439,0.803l4.283,4.147c0,0,0.438-17.943,0-22.793l-4.283-4.147
		c-2.849,0.485-30.875-4.092-53.464-14.307c-28.777-13.012-51.13-17.106-79.989-4.183c-36.64,16.408-59.08,16.177-64.98,15.74
		c0.572-1.874,1.186-3.727,1.836-5.559l0.877,0.816c13.385-0.728,36.02,0,57.932-13.336c34.878-21.228,67.573-5.577,96.714,4.122
		c29.143,9.699,44.042,6.79,44.042,6.79s0.137-1.12,0.223-2.723c4.936,13.809,7.648,28.858,7.648,44.609
		c0,18.504-3.75,36.035-10.444,51.727C237.486,201.896,234.977,197.684,232.499,195.143z M160.177,116.913
		c2.054,0.533,4.004,1.125,5.813,1.75c8.743,3.024,30.652,10.068,43.085,15.285c-8.397,5.355-22.635,13.502-46.267,17.041
		c2.828-4.313,4.497-9.615,4.497-15.352C167.304,128.298,164.572,121.667,160.177,116.913z"/>
	<linearGradient id="SVGID_8_" gradientUnits="userSpaceOnUse" x1="28.6318" y1="156.8691" x2="264.7711" y2="166.5074">
		<stop  offset="0" style="stop-color:#BABABA"/>
		<stop  offset="1" style="stop-color:#DEDEDE"/>
	</linearGradient>
	<path fill="url(#SVGID_8_)" d="M143.207,24.201c-68.543,0-124.11,61.491-124.11,137.344c0,75.854,55.566,137.345,124.11,137.345
		c68.544,0,124.11-61.491,124.11-137.345C267.317,85.692,211.751,24.201,143.207,24.201z M143.207,282.893
		c-60.56,0-109.164-54.328-109.164-121.348c0-16.598,1.957-32.416,8.957-46.825v3.216c13-0.728,35.53,0,57.441-13.336
		c34.877-21.228,67.327-5.577,96.469,4.122c29.142,9.699,43.919,6.79,43.919,6.79s0.596-5.334-0.061-9.457
		c-28.266,0.243-28.078-3.152-62.26-16.004c-34.181-12.851-55.317-10.184-85.993,5.092c-24.149,12.025-41.559,13.231-47.876,13.2
		c17.816-40.35,55.256-68.146,98.571-68.146c60.56,0,109.652,54.33,109.652,121.348c0,22.394-5.488,43.364-15.046,61.371
		c0.408-3.575,0.538-7.3,0.473-10.897c-0.219-12.125-5.255-16.975-8.542-19.156c-3.287-2.182-10.95-8.023-23.443-1.213
		c-9.934,5.416-12.27,12.853-12.927,23.521c-0.568,9.219,6.77,16.73,15.119,16.73c8.351,0,15.12-7.49,15.12-16.73
		c0-6.37-3.218-11.907-7.952-14.732c12.864-1.544,19.622,25.689,3.569,33.888c-17.091,8.729-30.457,2.183-40.098-3.637
		s-25.198-18.429-29.58-26.188c-4.382-7.761-27.608-33.22-30.896-39.283c11.395,4.284,25.771,4.104,33.805,3.604
		c12.439-0.774,33.608-1.421,57.785-16.455c25.009-15.552,31.771,0,31.771,0s0.438-17.943,0-22.793
		c-2.849,0.485-30.876-4.092-53.464-14.306c-28.777-13.013-50.641-17.106-79.499-4.183C65.967,130.384,43,126.665,43,126.665v13.579
		c22,0.849,35.53,7.638,40.679,12.852c5.149,5.213,5.495,11.033,2.208,20.368c-3.286,9.335-19.634,6.911-27.631,2.668
		C78.303,200.137,98,247.904,98,247.904s0-75.896,0-85.595c9,4.365,20.19,18.672,30.709,33.947
		c10.517,15.276,33.704,38.069,37.209,40.979c3.506,2.909,17.237,11.639,34.108,12.366c11.06,0.478,16.895-1.025,21.737-3.347
		C201.848,268.854,173.985,282.893,143.207,282.893z M128.846,156.07c-26.613-3.117-38.909-14.542-49.735-21.039
		c0,0,19.088-8.408,45.904-17.458c0.689-0.232,1.376-0.431,2.063-0.633c-4.38,4.753-7.102,11.372-7.102,18.698
		C119.976,143.903,123.439,151.271,128.846,156.07z M160.177,116.913c2.054,0.533,4.004,1.125,5.813,1.75
		c10.517,3.638,40.098,13.094,49.301,18.187c-8.965,5.823-25.916,16.53-56.995,19.34c5.485-4.796,9.008-12.216,9.008-20.552
		C167.304,128.298,164.572,121.667,160.177,116.913z"/>
</g>
<g id="Capivara_branca">
	<linearGradient id="corpointeiro_3_" gradientUnits="userSpaceOnUse" x1="306.0742" y1="294.1748" x2="183.4922" y2="85.0153">
		<stop  offset="0" style="stop-color:#B4B4B4"/>
		<stop  offset="0.7211" style="stop-color:#9B9B9B"/>
		<stop  offset="1" style="stop-color:#909090"/>
	</linearGradient>
	<path id="corpointeiro_1_" fill="url(#corpointeiro_3_)" d="M382.726,93.695c-3.979-14.755-18.623-18.262-31.627-22.24
		c-17.64-5.396-38.07-13.952-56.704-8.786c-0.051,0.013-5.545-5.176-8.025-5.026c-3.458,0.209-6.599,2.571-8.494,5.355
		c-2.336,3.433-0.177,9.083-2.511,10.998c-4.189,3.436-7.979,7.337-11.45,11.491c-8.045,9.63-14.368,20.169-24.252,28.177
		c-16.151,13.085-36.348,18.811-53.603,30.053c-16.292,10.615-30.793,24.04-43.503,38.71c-8.237,9.508-15.128,19.416-20.874,30.59
		c-8.863,17.236-9.831,38.329-10.41,57.338c-0.529,17.388,1.693,33.403,14.58,46.1c12.454,12.271,29.994,19.933,47.455,20.728
		c17.75,0.81,34.729-5.709,48.466-16.77c6.123-4.93,17.083,6.514,24.225-3.271c4.48-6.138-3.192-11.109-7.785-13.423
		c4.189-5.232,6.384-6.378,11.736-9.61c3.317-2.014,6.392-4.41,9.291-6.985c4.522-4.036,8.643-8.532,12.393-13.291
		c1.855-2.358,3.659-4.775,5.238-7.331c5.932-3.163,10.498-7.977,13.429-14.021c-0.74,5.178,0.058,5.381,2.764,8.689
		c0.324,0.396,0.449,0.966,0.565,1.449c1.467,6.203,1.71,12.582,4.792,18.283c1.048,1.942,2.37,3.759,3.967,5.288
		c1.894,3.789,20.047,11.798,16.548,4.801c2.954,1.669,9.39,4.367,12.729,1.943c0.345-0.25-5.124-7.35-5.438-7.669
		c0.101-0.002,0.086-0.089-0.043-0.26c0.55-0.457,2.948-0.021,3.043-0.985c0.181-1.828-9.181-5.351-10.671-6.291
		c-5.818-3.669-6.811-7.855-7.364-14.174c-1.298-14.792-2.868-30.688-0.55-45.439c3.021-19.226,6.481-37.98,12.654-56.5
		c2.235,1.74,4.852,2.954,7.292,4.363c-2.133-1.523-3.232-5.189-4.149-7.476c2.259,1.262,4.601,2.37,6.914,3.526
		c-2.997-2.398-4.397-7.14-5.584-10.609c2.263,1.278,4.605,2.414,6.967,3.499c-9.781-7.685-2.275-19.935,8.01-20.921
		c3.743-0.359,30.17-1.491,31.013-6.121c0.355-1.951-1.659-1.009,1.447-2.333c2.854-1.216,5.174-4.241,6.004-7.18
		C383.39,110.635,384.845,101.565,382.726,93.695C382.625,93.321,385.49,103.964,382.726,93.695z"/>
	
		<radialGradient id="pataTraseira_3_" cx="229.2217" cy="324.9141" r="14.0725" gradientTransform="matrix(0.9004 0 0 0.6722 29.2021 94.6712)" gradientUnits="userSpaceOnUse">
		<stop  offset="0.3103" style="stop-color:#BCBCBC"/>
		<stop  offset="0.5795" style="stop-color:#C2C2C2"/>
		<stop  offset="0.9632" style="stop-color:#D5D5D5"/>
		<stop  offset="1" style="stop-color:#D7D7D7"/>
	</radialGradient>
	<path id="pataTraseira_1_" fill="url(#pataTraseira_3_)" d="M224.028,318.337c4.919,2.399,11.077,4.414,16.51,2.616
		c4.81-1.592,8.416-6.221,5.651-11.104c-1.937-3.423-6.892-7.376-9.489-4.053C233,310.532,228.231,314.102,224.028,318.337
		C228.352,320.446,227.567,314.771,224.028,318.337z"/>
	
		<radialGradient id="iluminacaoInderior_3_" cx="227.5161" cy="203.6914" r="141.6975" gradientTransform="matrix(0.6971 0.7169 -3.2475 3.1579 730.4014 -602.6505)" gradientUnits="userSpaceOnUse">
		<stop  offset="0" style="stop-color:#909090"/>
		<stop  offset="0.6256" style="stop-color:#B4B4B4"/>
		<stop  offset="0.6946" style="stop-color:#B6B6B6"/>
		<stop  offset="0.7643" style="stop-color:#B9B9B9"/>
		<stop  offset="1" style="stop-color:#BCBCBC"/>
	</radialGradient>
	<path id="iluminacaoInderior_1_" fill="url(#iluminacaoInderior_3_)" d="M382.726,93.695c-2.131-7.917-13.659-9.741-20.984-10.748
		c-4.685-0.644-9.332,0.076-14.021,0.012c-4.024-0.055-7.926-1.368-11.896-1.884c-4.18-0.543-8.399-0.669-12.573-1.268
		c-2.226-0.318-4.433-0.746-6.616-1.283c-3.764-0.926-7.021-3.869-8.947-0.181c-0.345,0.66-2.393,2.733-2.43,3.59
		c-0.112,2.547,3.575,1.066,2.487,4.009c-1.202,3.25-6.896,8.112-10.121,4.141c2.543,14.101,2.076,28.039-7.243,39.509
		c-9.786,12.044-17.199,26.102-23.25,40.337c-2.235,5.258-3.772,10.992-7.256,15.604c-4.351,5.758-10.742,9.524-16.923,13.013
		c-6.596,3.723-12.37,7.094-17.184,13.091c-4.736,5.901-8.471,12.773-14.265,17.761c8.394,1.085,18.179,1.004,25.289,6.064
		c5.109,3.636,8.739,8.558,11.404,14.144c6.865,14.393,2.853,35.032-5.292,47.9c10.943-3.839,19.925-12.959,27.146-21.711
		c2.44-2.957,4.802-6.027,6.819-9.294c5.932-3.163,10.498-7.977,13.429-14.021c-0.258,1.806-0.941,4.943,0.271,6.64
		c0.826,1.157,2.37,1.323,2.867,2.809c2.125,6.345,1.699,12.941,5.021,19.047c3.033,5.576,9.266,10.656,15.367,12.583
		c2.961,0.936,7.255,1.723,5.11-2.567c2.954,1.669,9.39,4.367,12.729,1.943c0.178-0.129-5.287-8.089-5.48-7.929
		c0.66-0.549,1.96-0.226,2.737-0.629c1.563-0.813-5.681-4.043-5.903-4.156c-5.259-2.669-10.62-5.763-11.371-12.099
		c-1.323-11.16-1.812-22.521-1.856-33.751c-0.1-24.534,5.614-49.68,13.506-72.755c2.235,1.74,4.852,2.954,7.292,4.363
		c-2.133-1.523-3.232-5.189-4.149-7.476c2.259,1.262,4.601,2.37,6.914,3.526c-2.997-2.398-4.397-7.14-5.584-10.609
		c2.263,1.278,4.605,2.414,6.967,3.499c-9.709-7.627-2.224-19.94,8.01-20.921c3.743-0.359,30.17-1.491,31.013-6.121
		c0.355-1.951-1.659-1.009,1.447-2.333c2.854-1.216,5.174-4.241,6.004-7.18C383.39,110.635,384.845,101.565,382.726,93.695
		C382.287,92.066,385.49,103.964,382.726,93.695z"/>
	<linearGradient id="dedo2_3_" gradientUnits="userSpaceOnUse" x1="316.877" y1="293.2197" x2="314.7475" y2="276.184">
		<stop  offset="0" style="stop-color:#D7D7D7"/>
		<stop  offset="0.0368" style="stop-color:#D5D5D5"/>
		<stop  offset="0.4205" style="stop-color:#C2C2C2"/>
		<stop  offset="0.6897" style="stop-color:#BCBCBC"/>
		<stop  offset="0.9561" style="stop-color:#BCBCBC;stop-opacity:0.1413"/>
		<stop  offset="1" style="stop-color:#BCBCBC;stop-opacity:0"/>
	</linearGradient>
	<path id="dedo2_1_" fill="url(#dedo2_3_)" d="M331.327,292.265c-2.328-1.817-3.505-5.495-5.776-7.669
		c-2.83-2.707-6.188-4.822-9.826-6.269c-1.439-0.571-15.502-5.874-15.555-1.387c-0.027,2.277,3.846,1.956,5.614,2.615
		c3.743,1.396,6.887,3.642,9.603,6.556c2.742,2.942,3.994,5.798,8.107,7C324.719,293.47,332.641,293.289,331.327,292.265
		C330.951,291.972,331.67,292.532,331.327,292.265z"/>
	<linearGradient id="dedo1_3_" gradientUnits="userSpaceOnUse" x1="308.7222" y1="293.2539" x2="308.5732" y2="279.1745">
		<stop  offset="0" style="stop-color:#D7D7D7"/>
		<stop  offset="0.5916" style="stop-color:#C3C3C3"/>
		<stop  offset="0.7685" style="stop-color:#BCBCBC"/>
		<stop  offset="1" style="stop-color:#BCBCBC;stop-opacity:0"/>
	</linearGradient>
	<path id="dedo1_1_" fill="url(#dedo1_3_)" d="M319.854,293.088c-1.704-6.302-13.311-17.339-22.493-14.383
		c2.775,6.472,8.726,11.718,15.21,14.395C313.364,293.427,320.457,295.319,319.854,293.088
		C319.715,292.577,320.082,293.936,319.854,293.088z"/>
	<linearGradient id="orelhaDireita_3_" gradientUnits="userSpaceOnUse" x1="297.9385" y1="89.4175" x2="303.2027" y2="66.4598">
		<stop  offset="0.0056" style="stop-color:#B4B4B4"/>
		<stop  offset="1" style="stop-color:#909090"/>
	</linearGradient>
	<path id="orelhaDireita_1_" fill="url(#orelhaDireita_3_)" d="M305.877,80.858c6.013-3.928,3.331-13.324-2.33-15.663
		c-7.801-3.222-12.045,7.629-11.513,13.722c0.369,4.232,4.708,13.006,9.554,12.173c3.185-0.548,4.998-2.013,6.158-5.148
		C308.523,83.834,303.434,82.453,305.877,80.858C306.418,80.504,304.667,81.648,305.877,80.858z"/>
	<linearGradient id="orelhaEsquerda_3_" gradientUnits="userSpaceOnUse" x1="285.2407" y1="67.519" x2="280.1771" y2="58.879">
		<stop  offset="0" style="stop-color:#B4B4B4"/>
		<stop  offset="0.7211" style="stop-color:#9B9B9B"/>
		<stop  offset="1" style="stop-color:#909090"/>
	</linearGradient>
	<path id="orelhaEsquerda_1_" fill="url(#orelhaEsquerda_3_)" d="M276.75,72.887c5.251-4.094,12.068-8.067,17.401-10.021
		C285.214,51.488,274.994,61.956,276.75,72.887z"/>
	
		<radialGradient id="olho_3_" cx="333.7476" cy="83.6738" r="3.2646" gradientTransform="matrix(0.9995 -0.0313 0.0132 0.4211 -0.9398 58.883)" gradientUnits="userSpaceOnUse">
		<stop  offset="0" style="stop-color:#434343"/>
		<stop  offset="1" style="stop-color:#282828"/>
	</radialGradient>
	<path id="olho_1_" fill="url(#olho_3_)" d="M325.354,84.315c0,0,6.369-6.122,20.292,0.396
		C334.637,92.018,330.982,90.092,325.354,84.315z"/>
</g>
<g id="Oia_a_Moeda">
	<g id="Moeda">
		<path fill="#FFFFFF" d="M501.69,124.999c0,16.716-5.313,30.631-15.936,41.745c-10.625,11.114-22.916,16.67-36.877,16.67
			c-12.553,0-23.881-4.623-33.984-13.869c-12.492-11.449-18.737-26.298-18.737-44.546c0-18.246,6.246-33.125,18.737-44.638
			c10.103-9.245,21.431-13.869,33.984-13.869c13.961,0,26.252,5.557,36.877,16.671C496.378,94.276,501.69,108.223,501.69,124.999z
			 M482.861,124.999c0-11.449-3.46-20.925-10.378-28.427c-6.92-7.5-14.788-11.251-23.605-11.251
			c-8.757,0-16.595,3.766-23.513,11.297c-6.92,7.532-10.379,16.992-10.379,28.381s3.458,20.835,10.379,28.335
			c6.918,7.501,14.756,11.251,23.513,11.251c8.817,0,16.685-3.734,23.605-11.206C479.401,145.911,482.861,136.45,482.861,124.999z
			 M464.584,37.927l-20.666,16.808c-2.083,1.653-3.828,2.48-5.235,2.48c-1.715,0-3.169-0.581-4.363-1.745
			c-1.194-1.163-1.791-2.602-1.791-4.317c0-1.959,1.224-3.918,3.674-5.878l20.758-16.808c2.081-1.653,3.826-2.48,5.235-2.48
			c1.713,0,3.168,0.583,4.363,1.745c1.194,1.164,1.791,2.572,1.791,4.225C468.35,33.978,467.094,35.968,464.584,37.927z"/>
		<path fill="#FFFFFF" d="M571.036,97.261v64.569h22.595c4.53,0,7.761,0.873,9.689,2.618s2.894,4.027,2.894,6.843
			c0,2.755-0.965,5.006-2.894,6.751s-5.159,2.618-9.689,2.618h-64.019c-4.532,0-7.762-0.873-9.69-2.618s-2.893-4.025-2.893-6.843
			c0-2.755,0.964-5.006,2.893-6.751s5.158-2.618,9.69-2.618h22.595v-45.74h-15.155c-4.471,0-7.685-0.873-9.644-2.618
			c-1.961-1.745-2.939-4.025-2.939-6.843c0-2.755,0.965-5.005,2.894-6.75s5.157-2.618,9.689-2.618H571.036z M568.464,61.532v19.931
			h-22.411V61.532H568.464z"/>
		<path fill="#FFFFFF" d="M691.541,180.659v-4.409c-4.716,2.511-9.92,4.395-15.614,5.648c-5.694,1.254-10.87,1.883-15.522,1.883
			c-10.104,0-18.31-2.68-24.615-8.037c-6.308-5.357-9.46-11.281-9.46-17.772c0-7.899,4.025-15.231,12.078-21.998
			c8.051-6.765,19.18-10.149,33.387-10.149c5.694,0,12.275,0.613,19.747,1.837v-4.5c0-2.815-1.21-5.112-3.628-6.889
			c-2.42-1.775-7.026-2.664-13.823-2.664c-5.572,0-12.799,1.103-21.676,3.307c-3.307,0.796-5.879,1.194-7.716,1.194
			c-2.512,0-4.638-0.902-6.383-2.709c-1.745-1.805-2.618-4.117-2.618-6.935c0-1.591,0.306-2.969,0.919-4.133
			c0.611-1.163,1.469-2.097,2.571-2.801c1.103-0.704,3.398-1.546,6.889-2.526c4.652-1.286,9.398-2.311,14.236-3.077
			c4.837-0.765,9.215-1.148,13.135-1.148c11.694,0,20.771,2.526,27.232,7.577c6.46,5.052,9.69,11.956,9.69,20.712v38.76h3.215
			c4.53,0,7.761,0.873,9.689,2.618s2.894,4.027,2.894,6.843c0,2.755-0.965,5.006-2.894,6.751s-5.159,2.618-9.689,2.618H691.541z
			 M691.541,146.951c-7.531-1.469-14.481-2.204-20.85-2.204c-7.655,0-14.236,1.869-19.747,5.603
			c-3.431,2.388-5.144,4.808-5.144,7.256c0,1.776,0.826,3.214,2.479,4.317c3.062,2.021,7.256,3.031,12.583,3.031
			c4.531,0,9.659-0.887,15.385-2.664c5.725-1.775,10.822-4.193,15.293-7.256V146.951z"/>
		<path fill="#FFFFFF" d="M917.304,180.659v-4.409c-4.716,2.511-9.92,4.395-15.614,5.648c-5.694,1.254-10.869,1.883-15.522,1.883
			c-10.104,0-18.31-2.68-24.615-8.037c-6.308-5.357-9.46-11.281-9.46-17.772c0-7.899,4.025-15.231,12.078-21.998
			c8.051-6.765,19.18-10.149,33.387-10.149c5.694,0,12.275,0.613,19.747,1.837v-4.5c0-2.815-1.21-5.112-3.628-6.889
			c-2.42-1.775-7.026-2.664-13.823-2.664c-5.572,0-12.799,1.103-21.676,3.307c-3.307,0.796-5.879,1.194-7.716,1.194
			c-2.512,0-4.638-0.902-6.383-2.709c-1.745-1.805-2.618-4.117-2.618-6.935c0-1.591,0.306-2.969,0.919-4.133
			c0.611-1.163,1.469-2.097,2.571-2.801c1.103-0.704,3.398-1.546,6.889-2.526c4.652-1.286,9.398-2.311,14.236-3.077
			c4.837-0.765,9.215-1.148,13.135-1.148c11.694,0,20.771,2.526,27.232,7.577c6.46,5.052,9.69,11.956,9.69,20.712v38.76h3.215
			c4.53,0,7.761,0.873,9.689,2.618s2.894,4.027,2.894,6.843c0,2.755-0.965,5.006-2.894,6.751s-5.159,2.618-9.689,2.618H917.304z
			 M917.304,146.951c-7.531-1.469-14.481-2.204-20.85-2.204c-7.655,0-14.236,1.869-19.747,5.603
			c-3.431,2.388-5.144,4.808-5.144,7.256c0,1.776,0.826,3.214,2.479,4.317c3.062,2.021,7.256,3.031,12.583,3.031
			c4.531,0,9.659-0.887,15.385-2.664c5.725-1.775,10.822-4.193,15.293-7.256V146.951z"/>
	</g>
	<g id="Óia_a">
		<path fill="#FFFFFF" d="M362.59,252.111v62.59h7.581c5.053,0,8.656,0.974,10.808,2.92c2.151,1.946,3.227,4.491,3.227,7.632
			c0,3.072-1.076,5.582-3.227,7.528c-2.151,1.946-5.754,2.92-10.808,2.92h-27.556c-5.055,0-8.656-0.974-10.808-2.92
			c-2.151-1.946-3.227-4.489-3.227-7.631c0-3.073,1.06-5.583,3.175-7.529c2.116-1.946,5.394-2.92,9.834-2.92v-82.156
			c-3.688-0.341-6.471-1.468-8.349-3.38c-1.877-1.911-2.817-4.302-2.817-7.17c0-3.141,1.076-5.686,3.227-7.632
			c2.151-1.946,5.752-2.919,10.807-2.919l23.049,0.103l28.58,63.205l28.068-63.307l23.253,0.103c5.053,0,8.656,0.957,10.807,2.868
			c2.151,1.913,3.227,4.44,3.227,7.581c0,2.868-0.958,5.259-2.868,7.17c-1.913,1.913-4.679,3.04-8.298,3.38v82.156
			c4.438,0,7.717,0.991,9.834,2.971c2.116,1.981,3.176,4.508,3.176,7.581c0,3.072-1.076,5.582-3.227,7.528
			c-2.151,1.946-5.754,2.92-10.808,2.92h-27.658c-4.986,0-8.554-0.974-10.705-2.92c-2.151-1.946-3.227-4.489-3.227-7.631
			c0-3.073,1.076-5.583,3.227-7.529c2.151-1.946,5.719-2.92,10.705-2.92h7.683v-62.59l-24.073,54.088h-18.234L362.59,252.111z"/>
		<path fill="#FFFFFF" d="M575.867,290.936c0,8.059-2.237,15.862-6.709,23.407c-4.474,7.547-11.133,13.557-19.976,18.029
			c-8.845,4.472-18.081,6.71-27.71,6.71c-9.562,0-18.713-2.203-27.453-6.607c-8.742-4.405-15.401-10.397-19.976-17.979
			c-4.576-7.58-6.863-15.502-6.863-23.766c0-8.4,2.321-16.646,6.966-24.739c4.644-8.093,11.32-14.46,20.027-19.104
			c8.707-4.644,17.807-6.966,27.3-6.966c9.561,0,18.763,2.374,27.607,7.119c8.843,4.748,15.52,11.132,20.026,19.156
			C573.614,274.222,575.867,282.469,575.867,290.936z M554.868,291.038c0-6.761-2.426-12.975-7.273-18.644
			c-6.625-7.647-15.332-11.473-26.122-11.473c-9.493,0-17.414,3.04-23.766,9.117c-6.351,6.079-9.526,13.112-9.526,21.103
			c0,6.556,3.209,12.687,9.629,18.388c6.418,5.703,14.306,8.554,23.663,8.554c9.425,0,17.346-2.851,23.766-8.554
			C551.657,303.827,554.868,297.663,554.868,291.038z"/>
		<path fill="#FFFFFF" d="M699.921,299.848H613.77c2.186,5.465,6.061,9.869,11.627,13.215c5.565,3.347,13.095,5.02,22.588,5.02
			c7.785,0,18.132-1.673,31.039-5.02c5.326-1.365,9.015-2.049,11.063-2.049c2.799,0,5.155,0.99,7.068,2.971
			c1.911,1.981,2.868,4.474,2.868,7.478c0,2.732-1.024,5.055-3.073,6.966c-2.732,2.527-9.391,4.935-19.976,7.223
			c-10.587,2.287-20.762,3.432-30.526,3.432c-16.801,0-30.237-4.746-40.31-14.239c-10.074-9.491-15.11-21.17-15.11-35.034
			c0-14.751,5.445-26.752,16.339-36.007c10.893-9.253,23.441-13.88,37.646-13.88c8.536,0,16.372,1.503,23.51,4.507
			c7.136,3.006,12.446,6.249,15.929,9.732c4.917,5.055,8.979,11.303,12.19,18.746c2.185,5.191,3.278,11.201,3.278,18.029V299.848z
			 M676.667,278.848c-3.211-6.008-7.411-10.5-12.6-13.471c-5.191-2.971-11.371-4.456-18.542-4.456
			c-7.104,0-13.249,1.485-18.438,4.456c-5.19,2.971-9.425,7.462-12.702,13.471H676.667z"/>
		<path fill="#FFFFFF" d="M821.31,202.838v111.863h3.586c4.984,0,8.569,0.974,10.756,2.92c2.185,1.946,3.278,4.491,3.278,7.632
			c0,3.072-1.076,5.582-3.228,7.528s-5.754,2.92-10.807,2.92H800.31v-5.122c-4.78,2.801-9.782,4.917-15.007,6.352
			c-5.225,1.434-10.638,2.151-16.236,2.151c-15.775,0-28.479-4.559-38.107-13.676s-14.443-20.471-14.443-34.061
			c0-14.204,5.053-26.327,15.16-36.366c10.106-10.039,22.435-15.058,36.98-15.058c5.463,0,10.823,0.837,16.083,2.509
			c5.258,1.674,10.449,4.184,15.57,7.529v-26.122h-3.585c-5.055,0-8.656-0.973-10.808-2.919c-2.15-1.946-3.227-4.456-3.227-7.529
			c0-3.141,1.076-5.686,3.227-7.632c2.151-1.946,5.753-2.919,10.808-2.919H821.31z M800.31,291.96
			c0-8.672-3.039-16.014-9.116-22.024c-6.079-6.009-13.522-9.015-22.332-9.015c-8.742,0-16.151,3.006-22.229,9.015
			c-6.079,6.01-9.116,13.25-9.116,21.717c0,7.719,2.73,14.052,8.194,19.003c5.463,4.952,13.18,7.427,23.151,7.427
			c9.901,0,17.619-2.475,23.151-7.427C797.544,305.704,800.31,299.474,800.31,291.96z"/>
		<path fill="#FFFFFF" d="M917.91,335.701v-4.917c-5.26,2.801-11.063,4.901-17.415,6.3c-6.351,1.399-12.123,2.1-17.312,2.1
			c-11.269,0-20.421-2.988-27.454-8.963c-7.034-5.975-10.551-12.582-10.551-19.822c0-8.81,4.489-16.986,13.471-24.533
			c8.979-7.545,21.392-11.32,37.236-11.32c6.351,0,13.691,0.684,22.024,2.049v-5.02c0-3.141-1.35-5.701-4.047-7.683
			c-2.698-1.98-7.836-2.971-15.417-2.971c-6.215,0-14.273,1.229-24.175,3.688c-3.688,0.888-6.557,1.332-8.605,1.332
			c-2.801,0-5.173-1.007-7.119-3.022c-1.946-2.013-2.92-4.592-2.92-7.734c0-1.775,0.341-3.312,1.024-4.61
			c0.683-1.296,1.64-2.338,2.868-3.125c1.229-0.784,3.791-1.724,7.684-2.817c5.188-1.434,10.482-2.577,15.878-3.432
			c5.394-0.853,10.277-1.28,14.648-1.28c13.043,0,23.167,2.817,30.373,8.451c7.204,5.634,10.808,13.334,10.808,23.1v43.229h3.585
			c5.053,0,8.656,0.974,10.808,2.92s3.227,4.491,3.227,7.632c0,3.072-1.075,5.582-3.227,7.528s-5.755,2.92-10.808,2.92H917.91z
			 M917.91,298.106c-8.4-1.64-16.152-2.459-23.254-2.459c-8.537,0-15.878,2.084-22.024,6.249c-3.825,2.663-5.736,5.362-5.736,8.093
			c0,1.981,0.922,3.585,2.766,4.814c3.414,2.254,8.093,3.381,14.034,3.381c5.054,0,10.772-0.989,17.158-2.971
			c6.385-1.98,12.07-4.678,17.057-8.093V298.106z"/>
	</g>
</g>
</svg>
